HIERARCHY
ROOT Hips
{
  OFFSET 5.80788e-005 67.184 3.4734
  CHANNELS 6 Xposition Yposition Zposition Zrotation Xrotation Yrotation
  JOINT Chest
  {
    OFFSET 0 8.7983 -4.7612
    CHANNELS 6 Xposition Yposition Zposition Zrotation Xrotation Yrotation
    JOINT Chest2
    {
      OFFSET 0 8.0291 0.4195
      CHANNELS 6 Xposition Yposition Zposition Zrotation Xrotation Yrotation
      JOINT Chest3
      {
        OFFSET 0 9.9351 -2.2114
        CHANNELS 6 Xposition Yposition Zposition Zrotation Xrotation Yrotation
        JOINT Neck
        {
          OFFSET 0 22.3885 -0.4656
          CHANNELS 6 Xposition Yposition Zposition Zrotation Xrotation Yrotation
          JOINT Head
          {
            OFFSET -0.0001 12.643 3.4389
            CHANNELS 6 Xposition Yposition Zposition Zrotation Xrotation Yrotation
            End Site
            {
              OFFSET 0.0001 17.6655 0.5274
            }
          }
        }
        JOINT LeftCollar
        {
          OFFSET 2.2603 21.606 7.4023
          CHANNELS 6 Xposition Yposition Zposition Zrotation Xrotation Yrotation
          JOINT LeftShoulder
          {
            OFFSET 13.5163 -1.1332 -5.0146
            CHANNELS 6 Xposition Yposition Zposition Zrotation Xrotation Yrotation
            JOINT LeftElbow
            {
              OFFSET -0.0995 -28.05 -0.2431
              CHANNELS 6 Xposition Yposition Zposition Zrotation Xrotation Yrotation
              JOINT LeftWrist
              {
                OFFSET 0.0679 -23.3996 -0.1402
                CHANNELS 6 Xposition Yposition Zposition Zrotation Xrotation Yrotation
                JOINT LeftFinger1
                {
                  OFFSET 0.7932 -9.069 2.5189
                  CHANNELS 6 Xposition Yposition Zposition Zrotation Xrotation Yrotation
                  JOINT LeftFinger11
                  {
                    OFFSET -0.8272 -3.3923 0.5977
                    CHANNELS 6 Xposition Yposition Zposition Zrotation Xrotation Yrotation
                    JOINT LeftFinger12
                    {
                      OFFSET -0.5649 -2.3158 0.4082
                      CHANNELS 6 Xposition Yposition Zposition Zrotation Xrotation Yrotation
                      End Site
                      {
                        OFFSET -0.4919 -1.6479 0.2673
                      }
                    }
                  }
                }
                JOINT LeftFinger2
                {
                  OFFSET 0.9159 -9.2044 0.2193
                  CHANNELS 6 Xposition Yposition Zposition Zrotation Xrotation Yrotation
                  JOINT LeftFinger21
                  {
                    OFFSET 0.0117 -4.1944 -0.0248
                    CHANNELS 6 Xposition Yposition Zposition Zrotation Xrotation Yrotation
                    JOINT LeftFinger22
                    {
                      OFFSET 0.0071 -2.3249 -0.0142
                      CHANNELS 6 Xposition Yposition Zposition Zrotation Xrotation Yrotation
                      End Site
                      {
                        OFFSET -0.1475 -2.0882 0.0028
                      }
                    }
                  }
                }
                JOINT LeftFinger3
                {
                  OFFSET 0.6113 -8.7231 -2.0637
                  CHANNELS 6 Xposition Yposition Zposition Zrotation Xrotation Yrotation
                  JOINT LeftFinger31
                  {
                    OFFSET -0.1927 -3.8059 -0.2383
                    CHANNELS 6 Xposition Yposition Zposition Zrotation Xrotation Yrotation
                    JOINT LeftFinger32
                    {
                      OFFSET -0.1091 -2.1688 -0.1362
                      CHANNELS 6 Xposition Yposition Zposition Zrotation Xrotation Yrotation
                      End Site
                      {
                        OFFSET -0.2358 -1.9176 -0.0906
                      }
                    }
                  }
                }
                JOINT LeftFinger4
                {
                  OFFSET -0.6151 -8.0947 -3.5641
                  CHANNELS 6 Xposition Yposition Zposition Zrotation Xrotation Yrotation
                  JOINT LeftFinger41
                  {
                    OFFSET -0.4882 -2.341 -0.6462
                    CHANNELS 6 Xposition Yposition Zposition Zrotation Xrotation Yrotation
                    JOINT LeftFinger42
                    {
                      OFFSET -0.3575 -1.7167 -0.4742
                      CHANNELS 6 Xposition Yposition Zposition Zrotation Xrotation Yrotation
                      End Site
                      {
                        OFFSET -0.4187 -1.5237 -0.3496
                      }
                    }
                  }
                }
                JOINT LeftFinger0
                {
                  OFFSET -1.42 -1.8761 1.4223
                  CHANNELS 6 Xposition Yposition Zposition Zrotation Xrotation Yrotation
                  JOINT LeftFinger01
                  {
                    OFFSET -1.1471 -3.4929 2.6334
                    CHANNELS 6 Xposition Yposition Zposition Zrotation Xrotation Yrotation
                    JOINT LeftFinger02
                    {
                      OFFSET -0.823 -2.3 1.6571
                      CHANNELS 6 Xposition Yposition Zposition Zrotation Xrotation Yrotation
                      End Site
                      {
                        OFFSET -0.5822 -1.6914 1.1582
                      }
                    }
                  }
                }
              }
            }
          }
        }
        JOINT RightCollar
        {
          OFFSET -2.2603 21.606 7.4023
          CHANNELS 6 Xposition Yposition Zposition Zrotation Xrotation Yrotation
          JOINT RightShoulder
          {
            OFFSET -13.5187 -1.1334 -5.0155
            CHANNELS 6 Xposition Yposition Zposition Zrotation Xrotation Yrotation
            JOINT RightElbow
            {
              OFFSET 0.0994 -28.0499 -0.2431
              CHANNELS 6 Xposition Yposition Zposition Zrotation Xrotation Yrotation
              JOINT RightWrist
              {
                OFFSET -0.0679 -23.3996 -0.1402
                CHANNELS 6 Xposition Yposition Zposition Zrotation Xrotation Yrotation
                JOINT RightFinger1
                {
                  OFFSET -0.7932 -9.0691 2.5189
                  CHANNELS 6 Xposition Yposition Zposition Zrotation Xrotation Yrotation
                  JOINT RightFinger11
                  {
                    OFFSET 0.8272 -3.3923 0.5977
                    CHANNELS 6 Xposition Yposition Zposition Zrotation Xrotation Yrotation
                    JOINT RightFinger12
                    {
                      OFFSET 0.565 -2.3158 0.4082
                      CHANNELS 6 Xposition Yposition Zposition Zrotation Xrotation Yrotation
                      End Site
                      {
                        OFFSET 0.4919 -1.6479 0.2673
                      }
                    }
                  }
                }
                JOINT RightFinger2
                {
                  OFFSET -0.916 -9.2044 0.2193
                  CHANNELS 6 Xposition Yposition Zposition Zrotation Xrotation Yrotation
                  JOINT RightFinger21
                  {
                    OFFSET -0.0117 -4.1944 -0.0248
                    CHANNELS 6 Xposition Yposition Zposition Zrotation Xrotation Yrotation
                    JOINT RightFinger22
                    {
                      OFFSET -0.0071 -2.3249 -0.0142
                      CHANNELS 6 Xposition Yposition Zposition Zrotation Xrotation Yrotation
                      End Site
                      {
                        OFFSET 0.1475 -2.0882 0.0028
                      }
                    }
                  }
                }
                JOINT RightFinger3
                {
                  OFFSET -0.6113 -8.7231 -2.0637
                  CHANNELS 6 Xposition Yposition Zposition Zrotation Xrotation Yrotation
                  JOINT RightFinger31
                  {
                    OFFSET 0.1927 -3.8059 -0.2383
                    CHANNELS 6 Xposition Yposition Zposition Zrotation Xrotation Yrotation
                    JOINT RightFinger32
                    {
                      OFFSET 0.1091 -2.1688 -0.1362
                      CHANNELS 6 Xposition Yposition Zposition Zrotation Xrotation Yrotation
                      End Site
                      {
                        OFFSET 0.2358 -1.9176 -0.0906
                      }
                    }
                  }
                }
                JOINT RightFinger4
                {
                  OFFSET 0.6151 -8.0947 -3.564
                  CHANNELS 6 Xposition Yposition Zposition Zrotation Xrotation Yrotation
                  JOINT RightFinger41
                  {
                    OFFSET 0.4882 -2.341 -0.6462
                    CHANNELS 6 Xposition Yposition Zposition Zrotation Xrotation Yrotation
                    JOINT RightFinger42
                    {
                      OFFSET 0.3574 -1.7166 -0.4742
                      CHANNELS 6 Xposition Yposition Zposition Zrotation Xrotation Yrotation
                      End Site
                      {
                        OFFSET 0.4187 -1.5237 -0.3496
                      }
                    }
                  }
                }
                JOINT RightFinger0
                {
                  OFFSET 1.4199 -1.8761 1.4221
                  CHANNELS 6 Xposition Yposition Zposition Zrotation Xrotation Yrotation
                  JOINT RightFinger01
                  {
                    OFFSET 1.1472 -3.4929 2.6336
                    CHANNELS 6 Xposition Yposition Zposition Zrotation Xrotation Yrotation
                    JOINT RightFinger02
                    {
                      OFFSET 0.8229 -2.3 1.6571
                      CHANNELS 6 Xposition Yposition Zposition Zrotation Xrotation Yrotation
                      End Site
                      {
                        OFFSET 0.5822 -1.6914 1.1582
                      }
                    }
                  }
                }
              }
            }
          }
        }
      }
    }
  }
  JOINT RightHip
  {
    OFFSET -9.412 3.9771 -0.7758
    CHANNELS 6 Xposition Yposition Zposition Zrotation Xrotation Yrotation
    JOINT RightKnee
    {
      OFFSET -0.7531 -40.938 0
      CHANNELS 6 Xposition Yposition Zposition Zrotation Xrotation Yrotation
      JOINT RightAnkle
      {
        OFFSET 0 -40.1986 0
        CHANNELS 6 Xposition Yposition Zposition Zrotation Xrotation Yrotation
        JOINT RightToe
        {
          OFFSET 0 -4.4182 9.239
          CHANNELS 6 Xposition Yposition Zposition Zrotation Xrotation Yrotation
          End Site
          {
            OFFSET 0 0 6.1981
          }
        }
      }
    }
  }
  JOINT LeftHip
  {
    OFFSET 9.4119 3.9773 -0.7758
    CHANNELS 6 Xposition Yposition Zposition Zrotation Xrotation Yrotation
    JOINT LeftKnee
    {
      OFFSET 0.7532 -40.9383 0
      CHANNELS 6 Xposition Yposition Zposition Zrotation Xrotation Yrotation
      JOINT LeftAnkle
      {
        OFFSET 0 -40.1986 0
        CHANNELS 6 Xposition Yposition Zposition Zrotation Xrotation Yrotation
        JOINT LeftToe
        {
          OFFSET 0 -4.4182 9.239
          CHANNELS 6 Xposition Yposition Zposition Zrotation Xrotation Yrotation
          End Site
          {
            OFFSET 0 0 6.1981
          }
        }
      }
    }
  }
}
MOTION
Frames:	4
Frame Time:	0.0333333
-0.710132 60.5371 7.20807 2.69125e-007 -7.19894 -9.63907e-007 0 8.7983 -4.7612 -0.160873 0.995394 3.26013 0 8.0291 0.4195 -0.378197 1.98002 6.5245 4.44089e-016 9.9351 -2.2114 -0.378197 1.98002 6.52451 0 22.3885 -0.4656 21.3703 -20.1989 -32.3086 -0.0001 12.643 3.4389 1.33727e-005 18.2947 -6.01355e-006 2.2603 21.606 7.4023 47.658 -10.0278 -29.9579 13.5163 -1.1332 -5.0146 27.0247 -8.76155 19.988 -0.0995 -28.05 -0.2431 164.546 -52.3652 -150.685 0.0679 -23.3996 -0.1402 -27.5982 0.9057 2.80519 0.7932 -9.069 2.5189 -1.59028e-015 0 -3.18055e-015 -0.8272 -3.3923 0.5977 1.59028e-015 -3.18055e-015 -0 -0.5649 -2.3158 0.4082 -3.18055e-015 -6.36111e-015 -3.18055e-015 0.9159 -9.2044 0.2193 -1.59028e-015 0 -3.18055e-015 0.0117 -4.1944 -0.0248 -0.012827 0.0023326 9.00576e-005 0.0071 -2.3249 -0.0142 3.18055e-015 -1.59028e-015 -3.18055e-015 0.6113 -8.7231 -2.0637 -1.59028e-015 0 -3.18055e-015 -0.1927 -3.8059 -0.2383 -0.0159397 0.00298002 0.00084966 -0.1091 -2.1688 -0.1362 -3.18055e-015 4.77083e-015 3.18055e-015 -0.6151 -8.0947 -3.5641 -1.59028e-015 0 -3.18055e-015 -0.4882 -2.341 -0.6462 -0.0125719 0.00312173 0.00281884 -0.3575 -1.7167 -0.4742 -7.95139e-015 2.54444e-014 -0 -1.42 -1.8761 1.4223 -1.59028e-015 0 -3.18055e-015 -1.1471 -3.4929 2.6334 1.59028e-015 -3.18055e-015 -0 -0.823 -2.3 1.6571 -3.18055e-015 -6.36111e-015 -3.18055e-015 -2.2603 21.606 7.4023 9.76843 -10.8494 21.4974 -13.5187 -1.1334 -5.0155 -26.8868 -10.9043 -15.795 0.0994 -28.0499 -0.2431 8.54276 -59.6219 7.31107 -0.0679 -23.3996 -0.1402 57.343 17.6293 -15.7371 -0.7932 -9.0691 2.5189 -3.18055e-015 1.27222e-014 -1.59028e-015 0.8272 -3.3923 0.5977 1.59028e-015 1.19271e-014 1.59028e-015 0.565 -2.3158 0.4082 -4.77083e-015 1.19271e-014 -1.59028e-015 -0.916 -9.2044 0.2193 -3.18055e-015 1.27222e-014 -1.59028e-015 -0.0117 -4.1944 -0.0248 0.0129924 0.00232057 -8.89123e-005 -0.0071 -2.3249 -0.0142 1.59028e-015 -7.95139e-016 -0 -0.6113 -8.7231 -2.0637 -3.18055e-015 1.27222e-014 -1.59028e-015 0.1927 -3.8059 -0.2383 0.0163128 0.00301205 -0.000875369 0.1091 -2.1688 -0.1362 -1.59028e-015 -2.78299e-015 -1.59028e-015 0.6151 -8.0947 -3.564 -3.18055e-015 1.27222e-014 -1.59028e-015 0.4882 -2.341 -0.6462 0.0145303 0.00364756 -0.00325464 0.3574 -1.7166 -0.4742 -1.59028e-015 -9.54166e-015 -0 1.4199 -1.8761 1.4221 -3.18055e-015 1.27222e-014 -1.59028e-015 1.1472 -3.4929 2.6336 1.59028e-015 1.19271e-014 1.59028e-015 0.8229 -2.3 1.6571 -4.77083e-015 1.19271e-014 -1.59028e-015 -9.412 3.9771 -0.7758 -18.2603 -13.6127 -13.0681 -0.7531 -40.938 0 -1.5979 40.0421 1.42953 -3.55271e-015 -40.1986 -3.55271e-015 22.4815 -14.4748 1.10326 0 -4.4182 9.239 2.59231e-006 5.98222e-009 1.64661e-006 9.4119 3.9773 -0.7758 7.97493 -17.111 14.0683 0.7532 -40.9383 0 4.7679 52.1395 -3.61514 0 -40.1986 -1.77636e-015 -13.8062 -26.2837 0.139425 1.77636e-015 -4.4182 9.239 1.74625e-006 -1.51902e-007 1.63648e-006 
-0.710085 60.5664 7.14993 -5.55268e-008 -6.93185 -8.5671e-009 0 8.7983 -4.7612 -0.174672 0.885138 3.26048 -2.22045e-016 8.0291 0.4195 -0.399485 1.7589 6.5248 4.44089e-016 9.9351 -2.2114 -0.399487 1.7589 6.52481 4.44089e-016 22.3885 -0.4656 21.344 -20.0152 -32.3849 -0.0001 12.643 3.4389 -6.80053e-006 18.357 6.34594e-006 2.2603 21.606 7.4023 47.5531 -9.85568 -30.1593 13.5163 -1.1332 -5.0146 26.9071 -8.77657 19.9451 -0.0995 -28.05 -0.2431 164.672 -52.3198 -150.588 0.0679 -23.3996 -0.1402 -27.6738 1.0691 2.7162 0.7932 -9.069 2.5189 1.59028e-015 3.18055e-015 -0 -0.8272 -3.3923 0.5977 -1.59028e-015 6.36111e-015 -3.18055e-015 -0.5649 -2.3158 0.4082 -1.59028e-015 3.18055e-015 -0 0.9159 -9.2044 0.2193 1.59028e-015 3.18055e-015 -0 0.0117 -4.1944 -0.0248 -0.0128789 0.00233773 9.58309e-005 0.0071 -2.3249 -0.0142 4.77083e-015 3.18055e-015 6.36111e-015 0.6113 -8.7231 -2.0637 1.59028e-015 3.18055e-015 -0 -0.1927 -3.8059 -0.2383 -0.0160332 0.00298246 0.000864461 -0.1091 -2.1688 -0.1362 1.59028e-015 -7.95139e-015 -6.36111e-015 -0.6151 -8.0947 -3.5641 1.59028e-015 3.18055e-015 -0 -0.4882 -2.341 -0.6462 -0.0126865 0.00314127 0.00285465 -0.3575 -1.7167 -0.4742 3.18055e-015 -3.18055e-015 -3.18055e-015 -1.42 -1.8761 1.4223 1.59028e-015 3.18055e-015 -0 -1.1471 -3.4929 2.6334 -1.59028e-015 6.36111e-015 -3.18055e-015 -0.823 -2.3 1.6571 -1.59028e-015 3.18055e-015 -0 -2.2603 21.606 7.4023 9.96379 -10.4384 21.5373 -13.5187 -1.1334 -5.0155 -26.9922 -10.8709 -15.833 0.0994 -28.0499 -0.2431 8.54279 -59.6219 7.31105 -0.0679 -23.3996 -0.1402 57.2915 17.5752 -15.582 -0.7932 -9.0691 2.5189 -3.18055e-015 -1.59028e-015 1.59028e-015 0.8272 -3.3923 0.5977 -6.36111e-015 5.1684e-015 -3.18055e-015 0.565 -2.3158 0.4082 -4.77083e-015 1.19271e-015 -1.59028e-015 -0.916 -9.2044 0.2193 -3.18055e-015 -1.59028e-015 1.59028e-015 -0.0117 -4.1944 -0.0248 0.0129686 0.00230077 -8.77865e-005 -0.0071 -2.3249 -0.0142 -3.18055e-015 -1.59028e-015 -3.18055e-015 -0.6113 -8.7231 -2.0637 -3.18055e-015 -1.59028e-015 1.59028e-015 0.1927 -3.8059 -0.2383 0.0163146 0.00301153 -0.000869675 0.1091 -2.1688 -0.1362 2.78332e-007 7.19185e-006 -1.43723e-006 0.6151 -8.0947 -3.564 -3.18055e-015 -1.59028e-015 1.59028e-015 0.4882 -2.341 -0.6462 0.01463 0.00367061 -0.00326566 0.3574 -1.7166 -0.4742 -1.59028e-015 6.75868e-015 -0 1.4199 -1.8761 1.4221 -3.18055e-015 -1.59028e-015 1.59028e-015 1.1472 -3.4929 2.6336 -6.36111e-015 5.1684e-015 -3.18055e-015 0.8229 -2.3 1.6571 -4.77083e-015 1.19271e-015 -1.59028e-015 -9.412 3.9771 -0.7758 -18.2559 -13.8261 -13.1052 -0.7531 -40.938 -7.10543e-015 -1.55648 39.8989 1.40392 -7.10543e-015 -40.1986 0 22.4502 -14.399 1.02138 0 -4.4182 9.239 1.68967e-015 -2.16803e-011 3.18055e-015 9.4119 3.9773 -0.7758 7.97237 -17.3533 14.0815 0.7532 -40.9383 0 4.72268 52.0301 -3.58024 0 -40.1986 1.77636e-015 -13.7779 -26.2041 0.185387 1.77636e-015 -4.4182 9.239 -5.41865e-008 1.86224e-008 -1.61534e-006 
-0.710034 60.5959 7.0917 7.81865e-008 -6.66477 -8.42263e-008 0 8.7983 -4.7612 -0.188463 0.774919 3.26081 2.22045e-016 8.0291 0.4195 -0.420764 1.53785 6.52501 0 9.9351 -2.2114 -0.420766 1.53786 6.52505 0 22.3885 -0.4656 21.318 -19.8316 -32.4612 -0.0001 12.643 3.4389 -4.36284e-006 18.4192 -3.69452e-006 2.2603 21.606 7.4023 47.4489 -9.6834 -30.3605 13.5163 -1.1332 -5.0146 26.7893 -8.79143 19.9021 -0.0995 -28.05 -0.2431 164.799 -52.2739 -150.491 0.0679 -23.3996 -0.1402 -27.7491 1.23259 2.6275 0.7932 -9.069 2.5189 -1.05934e-030 4.77083e-015 1.27222e-014 -0.8272 -3.3923 0.5977 -6.36111e-015 -1.59028e-015 6.36111e-015 -0.5649 -2.3158 0.4082 3.18055e-015 0 1.27222e-014 0.9159 -9.2044 0.2193 -1.05934e-030 4.77083e-015 1.27222e-014 0.0117 -4.1944 -0.0248 -0.0128163 0.0023208 8.14567e-005 0.0071 -2.3249 -0.0142 -1.59028e-015 -1.59028e-015 3.18055e-015 0.6113 -8.7231 -2.0637 -1.05934e-030 4.77083e-015 1.27222e-014 -0.1927 -3.8059 -0.2383 -0.0160166 0.00299333 0.000853568 -0.1091 -2.1688 -0.1362 9.54166e-015 0 9.54166e-015 -0.6151 -8.0947 -3.5641 -1.05934e-030 4.77083e-015 1.27222e-014 -0.4882 -2.341 -0.6462 -0.0126523 0.00314081 0.00283621 -0.3575 -1.7167 -0.4742 -4.77083e-015 0 1.27222e-014 -1.42 -1.8761 1.4223 -1.05934e-030 4.77083e-015 1.27222e-014 -1.1471 -3.4929 2.6334 -6.36111e-015 -1.59028e-015 6.36111e-015 -0.823 -2.3 1.6571 3.18055e-015 0 1.27222e-014 -2.2603 21.606 7.4023 10.1586 -10.0274 21.5755 -13.5187 -1.1334 -5.0155 -27.0975 -10.8374 -15.8709 0.0994 -28.0499 -0.2431 8.54282 -59.6219 7.3111 -0.0679 -23.3996 -0.1402 57.2401 17.5209 -15.427 -0.7932 -9.0691 2.5189 -2.27378e-006 -3.72374e-006 6.98045e-007 0.8272 -3.3923 0.5977 -8.57318e-007 -2.37779e-006 1.4698e-006 0.565 -2.3158 0.4082 5.97114e-006 -4.15068e-005 4.50129e-006 -0.916 -9.2044 0.2193 -2.27378e-006 -3.72374e-006 6.98045e-007 -0.0117 -4.1944 -0.0248 0.0129374 0.0022897 -7.18955e-005 -0.0071 -2.3249 -0.0142 4.59084e-008 -1.72998e-005 -4.53863e-006 -0.6113 -8.7231 -2.0637 -2.27378e-006 -3.72374e-006 6.98045e-007 0.1927 -3.8059 -0.2383 0.0163784 0.00303411 -0.000873635 0.1091 -2.1688 -0.1362 -7.09676e-006 -4.58898e-006 3.53576e-006 0.6151 -8.0947 -3.564 -2.27378e-006 -3.72374e-006 6.98045e-007 0.4882 -2.341 -0.6462 0.0146349 0.00368142 -0.00326319 0.3574 -1.7166 -0.4742 1.59028e-015 -6.75868e-015 -1.59028e-015 1.4199 -1.8761 1.4221 -2.27378e-006 -3.72374e-006 6.98045e-007 1.1472 -3.4929 2.6336 -8.57318e-007 -2.37779e-006 1.4698e-006 0.8229 -2.3 1.6571 5.97114e-006 -4.15068e-005 4.50129e-006 -9.412 3.9771 -0.7758 -18.2517 -14.0393 -13.1422 -0.7531 -40.938 0 -1.51513 39.7555 1.3785 0 -40.1986 3.55271e-015 22.4191 -14.3231 0.93955 -7.10543e-015 -4.4182 9.239 -8.46171e-007 -6.67175e-008 -1.04355e-008 9.4119 3.9773 -0.7758 7.96982 -17.5963 14.0946 0.7532 -40.9383 0 4.67795 51.9214 -3.54564 0 -40.1986 -5.32907e-015 -13.7496 -26.1245 0.231261 0 -4.4182 9.239 9.00221e-007 1.39858e-007 1.62591e-006 
-0.709981 60.6255 7.03338 9.6071e-008 -6.39771 2.1465e-006 -1.11022e-016 8.7983 -4.7612 -0.202246 0.664713 3.26106 -2.22045e-016 8.0291 0.4195 -0.442028 1.31685 6.52508 0 9.9351 -2.2114 -0.442028 1.31685 6.52509 4.44089e-016 22.3885 -0.4656 21.2923 -19.648 -32.5373 -0.0001 12.643 3.4389 3.24235e-006 18.4814 -3.79932e-006 2.2603 21.606 7.4023 47.3453 -9.51074 -30.5612 13.5163 -1.1332 -5.0146 26.6717 -8.80628 19.8591 -0.0995 -28.05 -0.2431 164.925 -52.2282 -150.394 0.0679 -23.3996 -0.1402 -27.8241 1.39617 2.53898 0.7932 -9.069 2.5189 -1.02961e-005 8.37903e-006 -6.267e-006 -0.8272 -3.3923 0.5977 1.16468e-005 -5.33853e-006 -3.29722e-006 -0.5649 -2.3158 0.4082 -3.53113e-031 -3.18055e-015 -6.36111e-015 0.9159 -9.2044 0.2193 -1.02961e-005 8.37903e-006 -6.267e-006 0.0117 -4.1944 -0.0248 -0.0128465 0.00232669 8.80783e-005 0.0071 -2.3249 -0.0142 -1.56524e-005 5.3108e-006 -9.5012e-006 0.6113 -8.7231 -2.0637 -1.02961e-005 8.37903e-006 -6.267e-006 -0.1927 -3.8059 -0.2383 -0.01608 0.00299383 0.000858161 -0.1091 -2.1688 -0.1362 0 0 -3.18055e-015 -0.6151 -8.0947 -3.5641 -1.02961e-005 8.37903e-006 -6.267e-006 -0.4882 -2.341 -0.6462 -0.0124402 0.00308017 0.00279164 -0.3575 -1.7167 -0.4742 -9.54166e-015 -3.18055e-015 6.36111e-015 -1.42 -1.8761 1.4223 -1.02961e-005 8.37903e-006 -6.267e-006 -1.1471 -3.4929 2.6334 1.16468e-005 -5.33853e-006 -3.29722e-006 -0.823 -2.3 1.6571 -3.53113e-031 -3.18055e-015 -6.36111e-015 -2.2603 21.606 7.4023 10.3528 -9.61635 21.6122 -13.5187 -1.1334 -5.0155 -27.2029 -10.8039 -15.9087 0.0994 -28.0499 -0.2431 8.54283 -59.6218 7.31102 -0.0679 -23.3996 -0.1402 57.1889 17.4665 -15.2721 -0.7932 -9.0691 2.5189 1.59028e-015 8.74653e-015 1.59028e-015 0.8272 -3.3923 0.5977 1.59028e-015 8.34896e-015 1.59028e-015 0.565 -2.3158 0.4082 -1.59028e-015 1.19271e-014 -3.18055e-015 -0.916 -9.2044 0.2193 1.59028e-015 8.74653e-015 1.59028e-015 -0.0117 -4.1944 -0.0248 0.0129335 0.00231019 -9.60999e-005 -0.0071 -2.3249 -0.0142 -2.28284e-006 -8.14208e-006 8.09927e-006 -0.6113 -8.7231 -2.0637 1.59028e-015 8.74653e-015 1.59028e-015 0.1927 -3.8059 -0.2383 0.0163721 0.00304176 -0.000882798 0.1091 -2.1688 -0.1362 1.59028e-015 4.37326e-015 -1.59028e-015 0.6151 -8.0947 -3.564 1.59028e-015 8.74653e-015 1.59028e-015 0.4882 -2.341 -0.6462 0.014513 0.00366452 -0.00324335 0.3574 -1.7166 -0.4742 4.77083e-015 -3.57812e-015 -6.36111e-015 1.4199 -1.8761 1.4221 1.59028e-015 8.74653e-015 1.59028e-015 1.1472 -3.4929 2.6336 1.59028e-015 8.34896e-015 1.59028e-015 0.8229 -2.3 1.6571 -1.59028e-015 1.19271e-014 -3.18055e-015 -9.412 3.9771 -0.7758 -18.2476 -14.2525 -13.1793 -0.7531 -40.938 0 -1.47398 39.6121 1.35323 -3.55271e-015 -40.1986 7.10543e-015 22.388 -14.2472 0.857771 -3.55271e-015 -4.4182 9.239 -1.88845e-015 -2.25092e-007 -0 9.4119 3.9773 -0.7758 7.96722 -17.8396 14.1077 0.7532 -40.9383 0 4.63364 51.8128 -3.51126 3.55271e-015 -40.1986 0 -13.7214 -26.0447 0.277116 1.77636e-015 -4.4182 9.239 3.56744e-006 -8.20736e-008 -8.85021e-006 
